/* XPM */
static char *_2cd2a49a24c4ea59f5af80bfecbd584eusOUsL06Qf85IZ4[] = {
/* columns rows colors chars-per-pixel */
"64 64 252 2 ",
"   c #010002",
".  c #04040C",
"X  c #0A060D",
"o  c #0A0A0D",
"O  c #030413",
"+  c #060A15",
"@  c #0B0C15",
"#  c #060C1A",
"$  c #0B0E1A",
"%  c #050617",
"&  c #130D15",
"*  c #0E111B",
"=  c #0D1216",
"-  c #12131C",
";  c #191519",
":  c #110B0C",
">  c #26181B",
",  c #341313",
"<  c #2C211E",
"1  c #020B26",
"2  c #0C1322",
"3  c #06142C",
"4  c #131521",
"5  c #151923",
"6  c #1B1D24",
"7  c #1A1E29",
"8  c #151B2A",
"9  c #031434",
"0  c #081936",
"q  c #131C35",
"w  c #231B22",
"e  c #381C20",
"r  c #1E2125",
"t  c #1D222C",
"y  c #1F282B",
"u  c #1A2538",
"i  c #0B2A32",
"p  c #212226",
"a  c #23242A",
"s  c #2A2A2E",
"d  c #292529",
"f  c #33262C",
"g  c #362829",
"h  c #252934",
"j  c #2B2C32",
"k  c #2A2D3B",
"l  c #242734",
"z  c #352E34",
"x  c #2B3239",
"c  c #333536",
"v  c #34363A",
"b  c #353A3B",
"n  c #393B3D",
"m  c #3A3337",
"M  c #35322C",
"N  c #1F2318",
"B  c #44191A",
"V  c #482929",
"C  c #493838",
"Z  c #563838",
"A  c #502E2E",
"S  c #663838",
"D  c #652736",
"F  c #401F20",
"G  c #3B403E",
"H  c #0E4E3A",
"J  c #46443D",
"K  c #58453D",
"L  c #68433B",
"P  c #0A2446",
"I  c #152945",
"U  c #192F4C",
"Y  c #2B3445",
"T  c #3B3E42",
"R  c #353B48",
"E  c #2A3D57",
"W  c #30394E",
"Q  c #473D42",
"!  c #6E3D41",
"~  c #0B5041",
"^  c #3D4144",
"/  c #3E434B",
"(  c #364457",
")  c #324A50",
"_  c #384F6B",
"`  c #434346",
"'  c #434549",
"]  c #4A4A4C",
"[  c #494749",
"{  c #574747",
"}  c #4B4D53",
"|  c #474C57",
" . c #554C55",
".. c #4C5258",
"X. c #57565A",
"o. c #5D544C",
"O. c #684A47",
"+. c #754B4A",
"@. c #6C524D",
"#. c #76534C",
"$. c #6A5757",
"%. c #7C5B55",
"&. c #775857",
"*. c #714C55",
"=. c #79635D",
"-. c #64615F",
";. c #565B65",
":. c #4A5568",
">. c #695F66",
",. c #5C6168",
"<. c #4E7172",
"1. c #66666A",
"2. c #796667",
"3. c #686B74",
"4. c #6D737B",
"5. c #76777B",
"6. c #776D71",
"7. c #883E49",
"8. c #865B58",
"9. c #955659",
"0. c #874A51",
"q. c #88645D",
"w. c #91675D",
"e. c #A8764F",
"r. c #965D62",
"t. c #8C6B65",
"y. c #896966",
"u. c #956A67",
"i. c #88726E",
"p. c #9A726C",
"a. c #94736D",
"s. c #897574",
"d. c #9E7B74",
"f. c #967976",
"g. c #A8756B",
"h. c #A77B78",
"j. c #AA7175",
"k. c #A75A70",
"l. c #B28C5B",
"z. c #AB844F",
"x. c #9B837A",
"c. c #948271",
"v. c #B99467",
"b. c #A7857B",
"n. c #A99479",
"m. c #BD9B75",
"M. c #B48A73",
"N. c #BFA07C",
"B. c #CA9575",
"V. c #C7A376",
"C. c #777B83",
"Z. c #7C7B92",
"A. c #5D7FA4",
"S. c #385C83",
"D. c #997F82",
"F. c #AB7B86",
"G. c #C8778D",
"H. c #7C8286",
"J. c #6F8794",
"K. c #59899B",
"L. c #84868A",
"P. c #9C8885",
"I. c #8B8E92",
"U. c #868C93",
"Y. c #8C9194",
"T. c #8C949C",
"R. c #94979C",
"E. c #A68985",
"W. c #B58A86",
"Q. c #AA9489",
"!. c #B5938B",
"~. c #BB948C",
"^. c #B49489",
"/. c #AC9893",
"(. c #B39B95",
"). c #BC9A93",
"_. c #B99895",
"`. c #A88D94",
"'. c #BBA29B",
"]. c #AEA098",
"[. c #949BA3",
"{. c #999CA7",
"}. c #9697A9",
"|. c #9DA4AC",
" X c #9EA3A5",
".X c #9FA8B2",
"XX c #A4A9AC",
"oX c #A4A6AB",
"OX c #A4ABB4",
"+X c #A5ABBD",
"@X c #A7AAB6",
"#X c #ACB1B4",
"$X c #ADB3BB",
"%X c #B1B6BA",
"&X c #B3B8BB",
"*X c #B5BABD",
"=X c #B3B8BD",
"-X c #B4B4B7",
";X c #B8AAA8",
":X c #B497A0",
">X c #C4978E",
",X c #C29B94",
"<X c #C59A97",
"1X c #C58D88",
"2X c #C4A29C",
"3X c #CBA49C",
"4X c #C8A79D",
"5X c #D5A69A",
"6X c #CCA5A1",
"7X c #CCAAA3",
"8X c #C9ABA7",
"9X c #D3ABA5",
"0X c #D6ABA8",
"qX c #CAB1A9",
"wX c #D4B3AB",
"eX c #DAB2AD",
"rX c #D9B7B3",
"tX c #DDAFB2",
"yX c #E3B9B8",
"uX c #F0AFA6",
"iX c #F09581",
"pX c #DDC4BD",
"aX c #E5C3BC",
"sX c #F3C1B6",
"dX c #A9AEC4",
"fX c #ADB4C7",
"gX c #B2B5CC",
"hX c #B5BAC5",
"jX c #B4BAD5",
"kX c #B9BEDB",
"lX c #B4B9D5",
"zX c #BBC3C8",
"xX c #BAC1DD",
"cX c #BEC4D5",
"vX c #BDC4E1",
"bX c #C5CBD6",
"nX c #CCD4DD",
"mX c #D2D4DB",
"MX c #F7CFCB",
"NX c #C2C9E6",
"BX c #C5CDEA",
"VX c #C3C9E6",
"CX c #C9D2EE",
"ZX c #CCD6E5",
"AX c #D4DBE8",
"SX c #CCD7F3",
"DX c #D2DAF5",
"FX c #D8E3FB",
"GX c #DAE1ED",
"HX c #E3EDFF",
"JX c #E8F5FE",
"KX c #F7FEFF",
/* pixels */
"m.v./.fX%X&X&X&X&X&X&X&X&X*X*X*X*X*X*X*X*X=X*X=X=X Xn.V.N.v.n.$X$X-X$X#X#X XoX%X$X%X$X#X#X#X#XXXoX X XoXoXXXXXXXXX[.c.l.l.l.z.Q.",
"m.v./.hX&X&X&X&X&X&X&X&X&X*X*X*X*X*X*X*X*X=X=X%X%XoXn.B.m.v.n.$X%X&X%X#X#XoX X{.[.R.R.T.Y.U.U.H.5.Y.XXXXXXXXXXXXXX|.c.z.l.l.e.n.",
"m.v./.hX%X&X%X&X&X&X&X&X&X*X*X*X*X*X*X*X*X=X%X%X%XoXn.m.m.v.m.%X%X$X#X#X#X$X[.H.H.H.H.H.H.C.H.C.5. X&X-X#X#X#X#X#X.Xc.z.l.l.e.e.",
"m.v.Q.hX%X$X%X%X%X%X&X*X*X&X&X&X&X&X=X*X*X%X%X%X%XOXn.v.V.V.c.L.I.I.L.zX&X#XR.U.I.Y.Y.I.I.Y.I.L.L.Y.L.L.H.5.5.5.5.4.=.z.z.z.l.z.",
"m.l.Q.$X%X%X%X%X&X*X*X*X*X*X&X&X*X*X*X*X*XhXhXhXzX$XQ.V.V.n.] [ } X.1.XXL.,.5.5.L.Y.I.5.L.L.H.H.H.5.C.C.L.L.U.I.R.T.R./.Q.n.n.v.",
"m.l.Q.$X%X%X%X*X*XhXzXzXzXzXzXzXzXhX*X*X%X#XoX X X{.P.x.i.{ v s p m [ X.X.' ] 1.3.4.L.[.{.|.|.XXOX$X%X=X=X%X$X$X$XOX|.|.[.[.I.c.",
"m.l.Q.hXzXhX&X-X$XXXoXoX XR.R.R.Y.Y.I.Y.U.L.L.L.R.I.6. .Q s d w 6 z m n ' T ` X.1.X.5.$XOXOXXX|.|.|.[.[.[.T.T.T.Y.T.T.T.T.T.R.[.",
"m.v.t.U.Y.U.L.L.H.H.H.L.Y.Y.Y.R.{.|.XX@X@X$XzX%XR.3.` Q j 7 w p w p d v v R v ` ^ c 5.T.T.[.[.[.[.[.[.{.|.|.|.OXOXoXXX#X-X-XhXzX",
"V.m.c.H.I.R.{.oXOX$X$X%X=XhXhXhXhXhXfX$XhX|.{.6.m f f d ; 6 ; & - - 6 j j h v v f [ 4.[.hXhXhXzXzXbXnXZXZXAXZXAXZXnXmXmXnXbXbXbX",
"V./.oX#X$X%X$X$X$X$X+XOXOX.X.X|.|.|.|.L.oXL.] f > d > ; ; : X X @ ; ; - p s d a z [ 6.cXAXnXnXnXnXbXzXzXhX$X|.[.T.U.H.C.4.3.,.;.",
"Q.R.|.oXoX X|.|.|.|.|.OXOX$X$XfX$XhXbXOX4.] w ; > d ; ; > f f f d w ; ; w f w w d m $.1.3.3.1.1.X.X...] ] [ ` ^ ` ` ` ' ' ' ' ' ",
"/.oXXX#X&XhXhXzXbXbXbXnXZXAXAXGXAXnXGXhXz & ; w d C C C $.f.E.E.E.f.f.D.E.E.E.s.=.{ C Q [ ' [ [ ] ] ] [ [ [ ' ] ] ] ] ] ' ` ^ n ",
"bXmXmXmXAXAXAXZXZXnXbXzXhX$XOX{.[.U.Y.>.> & m $.&.a.b.).0XrXrXyXaXaXaXaXaXaXMXaXyX8X2.C { X.' T T T c x s d d a r r r 7 6 6 7 6 ",
"+X.X{.T.U.H.H.C.C.5.3.1.1.1.1.,.;.;.] f > C D._.2X9XrXrXrXeXrXeX9X0X0X9X9X0XwXrXrXaXpXs.C ` a 6 r h p 6 6 r a r t a d d d d a p ",
"1.3.3.3.1.1.1.1.,.;.;.X.....X.} X.1.d : m f.8XqXwXrXrXwX9X7X3X<X<X<X<X<X<X<X6X6X2X2XwXrXi.Q d p a j s p d a a d a a a d d p a p ",
"' ....} } / R R x h a t 7 5 t - Q Q ; f $.(.qX8X8X7X2X,X~.~.~.~.).).>X>X>X~.).~.~._._.8XP.{ c 6 p j s p p p p a a p a p p a a p ",
"; - - 5 7 7 7 t t t t t t 7 s n [ > m $.s.'.qX7X6X,X~.~.~.~.,X<X,X,X,X>X<X<X<X<X).!.!.2XQ.$.[ r 6 j s p d p p r r p p a d d d p ",
"t t t t t h h t h h a a a 7 h  .C f $.f.P.(.7X8X2X~.~.~.,X<X3X9XeX9X6X3X9XeX9X3X,X~.~.).).y.$.Q - j j p s d d r r a r a d p p r ",
"a a t t r a a t a t t 7 7 - l  .m  .6.f.P./.'.'.).~.~.).>X<X3X9XtX0X6X3X<X9X6X6X7X3X<X,X2X!.$.Q 7 j j ; r ; & ; r p r r p d d s ",
"4 4 4 - - * $ 7 4 + # $ # . 5 } [ 2.6.6.x.Q.)._.).3X6X6X7X2X_.E.h.W.W.W.M.h.y.O.&.y.i.E.).7Xs.M 7 j T d 6 r p p j j c c v n n n ",
"+ + + $ $ # # $ # # # # # O *  .$.i.2.2.P._.).<X7X2XE.t.q.Z V V S 8.h.>Xp.S F , e Z @.&.a.2XE.m s T 1.v = v ` b b n T T n n n n ",
"@ @ # $ $ * $ # # $ $ # # O 7 X.$.2.&.f._._.2X6XE.8.#.%.#.A , , V S b.yX>XB , A +.p.h.p.t.!.Q.Q b ] X.] ' ` c b v n n n n n n n ",
"$ + $ $ $ $ # # # # # $ O   ' 2.{ o.i.).).~.).d.#.8.a.a.%.Z F F V O.W.rXMXh., > ; f { +.8.b.E.] } X.} X.X.` c b v n n n n n n n ",
"$ + $ * $ $ $ # # # # O 4 T 5.2.Q o.E.2X~.!.b.q.L A C f X > V Z +.p.~.3XyXMXu., & > V Z w.n.).` j n n v c c n v v b n n n n n n ",
"+ + * * + + O + + + O . 7 X.} T [ o.P.).~.^.h.u.8.O.Z A A *.q.p.W.~.~.9XyXyXyXh.8.#.y.b.W.~.4Xf.c c b b n n b c c c b n T n n n ",
"+ $ @ + + O + + % % O % O     % Q { i.).,X).).).<X).W.b.W.W.~.2X).W.3XeXtX0XtXeX,X~.~.).2X4X7X1XQ x b b b b b v c c b n b b n n ",
"+ $ + + + % 4 4 $ $ # 2 O 5 f.~.f.@.2.2X4X7XwXwXwXwXwX8X7X7X7X3XW.>X>Xh.h.j.j.9.W.9X6X3X4XqXwXg.m v b b b c v b v v n n n n b n ",
"% % + + O % 5 8 8 2 $ 2 . =.iXB.<X!.f.'.7XqXwXrXrXwXwXwXeXeX0XW.g.9.A Z +.0.+.S h.6X3X3X3X2X7XE.c v b b b b b v b v b n n n b b ",
"$ $ % $ + $ 2 2 * * # # + u.B.,XM.M.W.'.8X2X4X3X4X6X9X9XeX9XW.h.h.0.! S Z O.+.p.<X~.,X4X2X,X3Xf.z b n b b b b c b b n b b b b b ",
"* $ $ @ @ $ + O O O % O   t.uX4Xg.e.7X'.8X)._.~.,X,X,X<X3XW.u.W.).a.O.Z < C O.&.h.W.W.>X).).4X$.s n b b b b c v c b b b b b b b ",
"$ # # + . . % % # $ # %   m uX5Xg.j.<X(.'.'.!.W.!.!.W.~.W.9.w.d.a.8.#.0.+.9.r.r.u.t.a.h.!.!.,X$.j b b c b b c c b c c b b b b b ",
"2 # % 8 u I I ( E ( u _ A.3 { sX9X>XW.W./.'._.!.W.W.W.b.8.O.%.y.0.0.0.0.9.r.9.7.0.t.#.8.b.^.,X=.j b b b b b c b v c c b b b b b ",
"2 # O Y _ U U E I I I S.K.U   2.MX0Xg.p././.W.E.b.p.b.p.S A V A S &.u.F.E.`.:Xh.D B A +.p.!.).$.x b n b b b b c c c b b n n n b ",
"2 $ O I _ 0 0 P I I I I 0 u % O  ._.>Xg.E./.b.d.d.t.p.w.L Z S 0.j.F.G.G.G.G.G.G.k.0.#.L q.d.d. .c n n n b b b b b b v T T n n n ",
"3 O O % 0 0 9 9 P 0 0 9 1 9 3 1   8 5.y.P.Q.a.t.y.a.q.8.8.p.!.~.W.F.j.j.j.j.u.u.j.>X!.t.%.q.y.' T ^ T T T n n n b b b ^ ^ n T n ",
"u 8 u u E ( ( ( _ :.:.:.:.( x Y x 8 k k 3.`.y.%.=.t.q.8.t.h.b.b.h.u.8.#.Z V V K %.d.b.u.a.h.$.n ` ^ ^ T T T T T T n n T ^ ^ ^ ^ ",
";.;...| | ;...| :.;.:.4.{.3.] X. .] ' T [ P.f.&.t.a.d.d.p.p.a.u.p.p.u.w.9.q.8.8.u.p.#.#.b.t.Q ^ ` ^ ^ ^ T T ` ^ T n b T ^ ^ ^ ^ ",
"3.4.;.| ;.;.....;.;.,.1.U.3.' } } ] ] ] G -.x.2.y.t.a.h.h.a.u.u.q.u.h.h.W.1XW.h.g.w.#.q.q.C ^ ' ` ' ^ ^ ^ ` T b T T b ^ ^ ^ / ' ",
"W Y W W ( ( E ( ( ( ( _ E u 5 ; 5 5 x R u 3 ..s.$.%.y.y.a.y.q.a.t.q.%.y.u.u.u.p.q.%.q.O.m / ] ' ' ' ' ^ ] x   ; ` T T ^ / ] ' c ",
"3 O O % 3 0 1 9 9 9 9 0 P 9 # O O O u W 0 1 u (.x.i.i.&.$.$.{ O.&.&.O.O.+.+.+.%.%.@.Z > d ' ] ] ] ' ^ ] } @   L @.b T ^ [ J C Z ",
"0 1 1 1 q I 9 3 0 P 0 9 P P $ # # O u Y q q 2 L.qXQ.f.@.K { { Z C C Z Z Z C C C V g z w : ` ..T j h b x t . < K n T b o.@.n J #.",
"0 # $ $ q I 0 0 9 9 9 9 P Y % % % . 8 E q q 3 | '.(./.i.@.{ { Z C m m M g g > e Z C h - w j s - @ p v a . > #.A & ` C C O.$.z g ",
"1 f ;   8 P 3 0 I U 9 9 k { * O % O 2 Y q 1 1 q /.'.'.(.x.2.@.O.O.{ Z Z { Z Z O.b.P.7 + h - @ = & 7 a ; + ; Z 9.A ; M c m { ;   ",
"u X.g = 2 I 3 3 :.E U P d A r O O O $ Y q 9 1 3 ].'./.(./.P.i.=.&.#.@.#.%.#.%.t.b.9X`.R 5 7   . & r a ; d &   > +.A < b / 6     ",
"J.<.J o.p 2 # 2 x 8 q ~ ) j H i . . 2 I 9 W q k qX'.Q.Q./.E.f.y.y.&.#.#.%.%.t.d.b.^.aXrXQ h b ` b = - 6 g < ;   X g d j c s o   ",
"K.) M o.J . + X @ 5 5 - b 5 i ~ i . O q <.C.5.;XqX(./.E.Q.P.f.y.&.@.O.#.%.q.a.d.b.^.7X&.5 7 R ;.;.j t .   X   .     @ s s b ;   ",
"<.J M J [ + . . - - @ .     5 H y     J.hX;XMXpX/.(./.P.P.x.y.&.@.@.O.#.%.q.u.d.^.4XO.  $ - 4 a k R / h 5 X     .   . 6 j b 5 m ",
"<.J C M 6 . + - 7 % + @ % . o N , k jXHX1.8XaX(.x.(.(.E.f.f.&.@.@.@.#.&.q.y.a._.~.C   % * & - 4 4 5 a R R T j $     o ; s a - v ",
") J J s } 5.5.C.C.4.C.C.4...y 3.hXHXKXDXk 2.aX(./.'.(.E.f.y.&.@.@.@.#.q.d.E.b.2.d   X @ @ @ - 4 - 4 4 a Y R Y k k g L d 6 p 6 ; ",
"a G J c a x v j j j h - 7 4.VXKXKXFXCXHX;.  s.rXpX8X/./.x.t.%.@.O.@.%.t.=.{ w     O + X @ $ - - - - - 5 t 5 - 4 W | @.A & r ; @ ",
"+ C { -       O       ..+XHXJXFXSXCXBXFXgXO O [ s.P.P.Q.E.a.&.C g g f > .     . X X X + % * - * - * * 4 5 * ; - 7 Y R Q f s t 5 ",
". &.Z   + X .     | jXKXJXFXDXSXCXCXBXNXHXZ.  . O - w p w ; & X .       . O X X X . . + @ @ * * * * - 4 4 - - $ - h Y W R R R W ",
"z O.{ h @     T gXKXKXSXSXDXCXCXCXCXCXNXBXDXZ.4   . O . . . . O X + @ @ % O X X X X X @ @ @ = * * * * - 4 4 4 @ * t k Y k k Y Y ",
"5.Z f a +   3.KXKXSXCXDXSXBXBXBXBXBXBXNXxXVXFXdX,.k * X @ - $ $ @ @ @ + X X X X X + @ @ @ = * * $ $ * - 4 - * $ $ 7 k Y Y k Y h ",
"s.g   +   ;.KXHXCXCXSXCXBXBXBXNXNXNXNXvXxXlXlXBXAXgX{.C.k % % @ + . O X . . X X O % @ @ = $ * * * $ * - - * * * @ @ t Y Y k l t ",
"1.  +   ] KXHXCXCXCXBXBXNXBXNXNXNXNXNXNXxXlXgXgXgXjXZXhX| $ % X + @ X X X + @ % % @ @ @ $ @ * - - @ * - * * * $ @ + 4 t t a 7 7 ",
"3.* X o bXJXBXNXVXNXVXNXNXvXvXNXNXNXNXvXvXkXgXgXfXdX|.4.R 5 $ % @ @ + @ @ @ @ @ @ @ @ @ $ @ @ * * * - * * * * - * @ - 7 7 7 7 t ",
"4.t   C.KXBXvXxXxXxXxXNXvXxXxXvXNXNXvXxXxXkXlXgXgXfX{.;.k t t - @ % @ @ @ @ % @ @ @ @ @ @ @ @ @ $ * - * * * - - * $ @ 4 7 t 7 t ",
"3.= 5 jXDXjXjXgXlXlXgXkXvXxXxXNXvXNXvXxXkXjXkXlXgXgXgX}...t * * $ $ @ % % @ @ @ @ @ @ @ @ @ @ @ @ $ * * $ * * * * $ % * t a t t ",
"X.  } DXlXdXgXfXdXgXgXlXvXvXvXNXNXvXvXkXkXlXjXjXlXgXdX$XT.:.t * $ $ * @ @ @ @ @ @ @ @ @ @ @ @ @ @ $ * $ $ $ * * * $ @ + 5 7 7 7 ",
"c N 1.DXfX+XgXdX+XdXdXgXkXvXvXvXvXvXxXkXkXlXjXjXlXgXfXdX}.3.k $ $ * * $ $ $ $ @ @ @ @ @ @ @ @ @ $ - * $ * * - * @ @ @ @ * 5 5 5 ",
"{ J 1.bXlX+XdXdX+X+X+XgXxXvXvXvXvXxXkXkXjXlXlXlXlXlXgXgX{.;.l 2 @ $ $ $ $ $ @ @ @ @ @ @ @ @ @ @ $ * * @ * - - * @ + @ @ = - 5 5 ",
"2.[ 1.cXgX+X+X+X+X+XfXkXxXxXxXvXxXxXkXkXlXlXlXlXlXgXgXgX{.,.k 4 * $ $ $ $ $ @ @ @ @ @ @ @ @ @ @ $ * * $ * * - - = @ * @ $ * 4 4 ",
"n ; ;.cXdX+X+X+X+X+XlXxXxXxXxXvXvXkXjXlXjXlXlXgXgXlXgXgX@XL./ 4 - - $ $ $ $ @ % @ @ @ @ @ @ @ @ @ * * * * - 4 - * - * = $ $ * - "
};
