/* XPM */
static char *_9a8fb2ba7c34fd4a65ca72ba1cb6c5c5cfcBieGM5cpKG4L[] = {
/* columns rows colors chars-per-pixel */
"64 64 249 2 ",
"   c #010003",
".  c #01020B",
"X  c #09090E",
"o  c #180809",
"O  c #010313",
"+  c #0B0B14",
"@  c #020618",
"#  c #040B1D",
"$  c #0B0E1C",
"%  c #140C17",
"&  c #06111D",
"*  c #0E111D",
"=  c #17141B",
"-  c #260B19",
";  c #360B19",
":  c #27181C",
">  c #37141B",
",  c #38231C",
"<  c #020C24",
"1  c #0B0E21",
"2  c #110E23",
"3  c #0D1223",
"4  c #081426",
"5  c #121424",
"6  c #131529",
"7  c #171A28",
"8  c #061B37",
"9  c #151C32",
"0  c #281723",
"q  c #321324",
"w  c #16222D",
"e  c #162334",
"r  c #292428",
"t  c #392A28",
"y  c #3A332C",
"u  c #262936",
"i  c #313035",
"p  c #393837",
"a  c #4E0A13",
"s  c #690911",
"d  c #611F27",
"f  c #432C2A",
"g  c #482C29",
"h  c #44342E",
"j  c #4D322D",
"k  c #55372F",
"l  c #4A2933",
"z  c #4C3433",
"x  c #463936",
"c  c #543A33",
"v  c #553834",
"b  c #48433C",
"n  c #59453B",
"m  c #654838",
"M  c #031F45",
"N  c #0E2C4D",
"B  c #2D3648",
"V  c #2F374C",
"C  c #2B4154",
"Z  c #2B5F73",
"A  c #4B4745",
"S  c #56464A",
"D  c #5A574A",
"F  c #454A54",
"G  c #48535B",
"H  c #55585B",
"J  c #704E4D",
"K  c #645648",
"L  c #5B6151",
"P  c #7F6047",
"I  c #686558",
"U  c #4D5664",
"Y  c #4D506B",
"T  c #545C62",
"R  c #575D65",
"E  c #73576A",
"W  c #5D6263",
"Q  c #58636B",
"!  c #5B6974",
"~  c #646867",
"^  c #72706D",
"/  c #787669",
"(  c #636A73",
")  c #687478",
"_  c #757977",
"`  c #961E26",
"'  c #8D2B2E",
"]  c #AF2C30",
"[  c #8A544E",
"{  c #8B695B",
"}  c #946952",
"|  c #AC7455",
" . c #8C796D",
".. c #A97B63",
"X. c #B87B6E",
"o. c #E94D4F",
"O. c #7A847C",
"+. c #8A857A",
"@. c #B8876B",
"#. c #B18C74",
"$. c #CB906F",
"%. c #C8987A",
"&. c #E49C74",
"*. c #EFB277",
"=. c #FFC67F",
"-. c #4B6182",
";. c #677983",
":. c #727B88",
">. c #778589",
",. c #768992",
"<. c #6192A8",
"1. c #7B90A0",
"2. c #8D908A",
"3. c #889495",
"4. c #959B98",
"5. c #AA9387",
"6. c #98A29A",
"7. c #A8A694",
"8. c #B1AB99",
"9. c #889CAA",
"0. c #879EB3",
"q. c #8A9EB5",
"w. c #99A4A6",
"e. c #8CA1B5",
"r. c #8DA4B9",
"t. c #8CA6BB",
"y. c #92A5B4",
"u. c #94AAB6",
"i. c #9CAEB5",
"p. c #91A5BA",
"a. c #94ABBC",
"s. c #99ADBD",
"d. c #96B1BE",
"f. c #9CB2BE",
"g. c #A7ABA6",
"h. c #B6B6A5",
"j. c #AEB4B1",
"k. c #A6B6BA",
"l. c #ADBBBB",
"z. c #D79B81",
"x. c #D7A989",
"c. c #D7AB8E",
"v. c #E7A989",
"b. c #E7AF8F",
"n. c #E9B797",
"m. c #F7B898",
"M. c #C4B8AB",
"N. c #CABBB4",
"B. c #F3BDA4",
"V. c #B6C1BD",
"C. c #F5C797",
"Z. c #C5C4B6",
"A. c #CBC4B0",
"S. c #CCCCBD",
"D. c #D4CDBC",
"F. c #D9D1BD",
"G. c #EDC5A4",
"H. c #F8C9A5",
"J. c #FAD2AE",
"K. c #EBCCB2",
"L. c #F9CCB3",
"P. c #FEDAB7",
"I. c #FFE6BE",
"U. c #95ADC2",
"Y. c #99AEC3",
"T. c #96B2C3",
"R. c #9BB3C3",
"E. c #9DB9C5",
"W. c #97B2C8",
"Q. c #9BB5CA",
"!. c #96BACE",
"~. c #9EBACB",
"^. c #A2B5C4",
"/. c #A4BAC4",
"(. c #AABCC5",
"). c #A3B7C9",
"_. c #A2BCCB",
"`. c #ABBDCA",
"'. c #B2BEC9",
"]. c #A3BDD1",
"[. c #A8BDD3",
"{. c #AAC1C7",
"}. c #A5C2CD",
"|. c #ABC3CC",
" X c #B4C4C4",
".X c #BBC7C6",
"XX c #B2C4CB",
"oX c #B5C9CC",
"OX c #BBCCCC",
"+X c #A6C2D3",
"@X c #AAC5D3",
"#X c #ADCAD4",
"$X c #ACC9DA",
"%X c #B4CCD3",
"&X c #B6C8D5",
"*X c #BBCCD3",
"=X c #BCD1D4",
"-X c #B4D1DC",
";X c #BDD4DB",
":X c #BBD8DC",
">X c #93CEE1",
",X c #ACCCE2",
"<X c #B8D8E6",
"1X c #BDE3F0",
"2X c #C3C6C1",
"3X c #C5CBC5",
"4X c #CCCDC3",
"5X c #C3CDCB",
"6X c #C9CFC9",
"7X c #D5CFC1",
"8X c #CED1C3",
"9X c #C4D1CD",
"0X c #CCD2CB",
"qX c #D3D2C3",
"wX c #D7D6C9",
"eX c #C3CCD4",
"rX c #C3D3D3",
"tX c #CAD6D1",
"yX c #CCDBD5",
"uX c #C3D3DA",
"iX c #CBD4DC",
"pX c #C5D9DD",
"aX c #CBDDDB",
"sX c #D4DCD6",
"dX c #E3DDCD",
"fX c #FFDCC1",
"gX c #CDE1DB",
"hX c #D6E5DC",
"jX c #FEE8C7",
"kX c #FDF1CC",
"lX c #E7E8D7",
"zX c #F2EAD1",
"xX c #FDF5D3",
"cX c #FDFBDC",
"vX c #C6DDE5",
"bX c #D6DDE2",
"nX c #E4DFE3",
"mX c #C9E4E7",
"MX c #D9E8E5",
"NX c #C7EBF4",
"BX c #D7F5F7",
"VX c #E7EAE8",
"CX c #E5F6EA",
"ZX c #FEFEE3",
"AX c #FBFBEB",
"SX c #E7FDF8",
"DX c #F6F7F5",
"FX c #FCFCF3",
"GX c #FFFFFD",
/* pixels */
"= 1.a.q.e.e.e.r.r.r.r.e.e.e.e.e.e.e.y.e.q.e.e.y.y.y.y.u.s.k.^.(.'.`.^.k.s.u.y.e.9.9.9.9.q.q.q.q.q.q.q.e.e.q.q.q.e.e.e.e.q.r.p.F ",
"1.].9.e.e.e.r.r.r.r.r.r.r.r.r.r.r.r.p.r.p.y.y.u.s.s.s.^.(.'.*XeXeXeX*X'.(.^.s.u.y.y.y.e.e.q.q.e.e.e.e.e.r.r.e.e.e.e.e.e.e.0.r.U.",
"e.0.q.e.e.r.r.r.r.r.p.p.r.r.p.p.r.p.p.p.p.u.a.s.s.f.^.`.&XeXiXbXVXnXsXuXOX'.^.s.i.a.u.y.p.p.p.e.e.e.e.r.r.r.e.r.r.r.e.e.e.e.0.e.",
"9.e.e.e.e.r.r.r.r.r.u.y.r.r.p.p.r.p.a.p.a.a.s.s.d.^.`.XXuXbXVXDXGXFXVXbXiX&X`.^.f.s.a.a.p.p.p.p.r.r.r.r.r.r.r.r.r.r.r.r.r.r.r.q.",
"9.r.e.r.e.y.r.r.r.u.u.u.a.p.a.u.u.u.a.a.a.a.s.R.^.(.XX*XbXVXDXGXGXGXGXDXbXuXOX`.^.R.s.a.a.u.p.p.r.r.r.r.y.p.p.r.a.p.p.p.r.r.r.q.",
"9.r.r.r.p.u.u.U.a.u.u.u.a.a.a.a.a.a.a.a.a.Y.R.^.^.`.XXeXbXVXGXGXGXGXGXFXVXiX*X`._.R.f.s.s.a.u.u.p.u.u.u.u.a.a.r.a.a.p.p.p.r.r.e.",
"9.e.e.p.a.a.U.a.a.U.a.a.a.a.a.U.a.U.a.a.s.Y.R.R.^.`.XXeXbXVXFXGXGXGXGXDXVXiX*XXX_.R.R.Y.s.s.a.a.a.a.a.u.a.a.a.a.a.a.a.a.p.p.r.r.",
"9.u.y.a.a.a.U.a.a.U.U.a.a.a.U.U.U.s.R.Y.Y.Y.R.R.^.(.'.&XiXMXVXFXFXGXFXVXMXiX&X`.(.R.R.Y.a.a.s.a.U.U.U.U.U.U.a.a.a.a.a.U.a.a.r.r.",
"9.u.u.a.a.a.U.U.U.U.U.U.U.U.Y.Y.Y.Y.Y.R.R.R.R.R.^./.`.XX*XiXbXVXVXVXVXbXiX*XXX`./.^.R.R.T.d.a.U.U.U.a.a.U.U.U.a.a.a.a.U.U.a.u.r.",
"9.a.a.U.a.a.a.U.U.U.U.U.U.U.Y.R.Y.Y.R.R.R.R.R.R.^.^./.`.XX*XuXiXiXiXiXiX*XXX`._.^.R.R.T.T.Y.Y.U.T.T.T.a.U.U.U.U.U.a.U.U.U.u.u.r.",
"9.U.a.U.U.U.s.U.U.Y.Y.U.T.T.T.R.T.R.R.R.R.R.R.R.R.^.^./.`.|.&X&X&X*X*X&XXX(./.^.E.R.R.R.R.R.Y.U.T.T.T.T.U.U.U.U.U.U.U.U.U.u.u.p.",
"e.U.a.a.U.T.R.Y.U.Y.Y.T.T.T.T.T.W.E.R.R.R.R.R.d.d.R.R.R.^.(.`.`.`.`.`.`.(.^.^.R.d.d.d.R.R.R.R.R.T.T.T.T.U.U.U.U.U.U.U.Y.Y.a.a.u.",
"e.U.a.s.s.T.T.U.U.R.Y.T.T.W.W.T.E.E.E.R.R.R.R.R.R.d.R.R.^.^.(./.(._._.).^.^.R.T.d.R.E.R.R.R.R.E.R.R.T.T.T.U.Y.Y.Y.U.Y.d.a.a.a.u.",
"e.U.a.s.s.d.T.U.Y.Y.Y.W.T.W.Q.Q.E.Q.Q.R.R.E.R.Q.R.R.R.R.R.^.R.^.^./.^.^.^.R.E.E.R.R.R.R.~.E.E.E.R.R.T.T.T.W.W.W.Y.Y.Y.d.U.U.a.u.",
"e.U.a.s.d.T.R.R.R.W.R.W.Q.Q.Q.Q.Q.Q.Q.~.~.E.Q.~.~.~.R.E.E.E.E.E.~.R.~.).E.R.R.R.R.R.~.~.E.E.Q.Q.E.E.W.W.W.W.T.Y.R.R.R.R.Y.Y.a.u.",
"y.U.a.s.T.T.R.R.R.Q.W.W.Q.Q.Q.~.Q.Q.~.Q.~.~.~.~.).~.R.R.~.).~.E.E.R.E.E.E.^.R.R.).).R.~.E.E.Q.~.Q.Q.W.W.W.W.W.T.R.R.R.R.R.Y.a.u.",
"y.U.a.s.R.E.R.R.R.R.Q.Q.Q.Q.Q.Q.Q.Q.~.~.~.~.~.E.~.).^.)._._.]._._._._.)._.~.~.).).~.~.~.E.Q.Q.Q.~.Q.Q.Q.T.T.W.R.R.R.R.R.T.a.a.a.",
"y.U.s.s.R.E.R.R.E.E.Q.Q.Q.Q.~.~.~.~.~.~.~.~.~.~.~._._._._._.].[._.[.[.]._._._._._._._.~.E.~.~.~.Q.~.~.Q.W.T.T.R.E.R.R.Y.d.d.s.a.",
"y.U.s.s.R.R.R.R.E.E.Q.Q.Q.Q.Q.~.~.~._._.~.]._._._.]._._._.].[.[.}.[.].[.].].]._.].]._._.~.~.~.~.~.Q.~.Q.E.T.W.W.E.R.R.R.T.d.a.a.",
"y.U.a.s.R.R.R.R.E.E.~.~.~.~.~.~.~.~._.].].].].].+X+X].].+X+X+X+X+X+X}.+X[.[.[.[.[.[.]._._._._.~.~.~.Q.Q.f.E.T.T.d.R.R.T.d.d.a.u.",
"y.s.s.s.R.R.R.R.E.R.E.Q.~.~.~.~.].].].].+X+X].].+X+X@X+X+X@X,X<X<X<X,X,X,X@X@X+X+X[.].[._._.].~.~.~.E.E.E.E.E.E.R.Y.s.d.d.a.a.u.",
"u.R.Y.s.R.d.f.R.E.E.E.Q.~.~.~._._.].].+X~.~.+X+X@X+X@X@X,X<X#Xk.w.i.(.&X:X<X<X+X+X+X+X+X].].].~.~.E.E.E.E.E.E.E.R.R.Y.d.d.a.a.a.",
"u.R.R.R.R.R.R.R.E.E.~.~.~._._._.}.+X+X@X~.E.$X+X+X@X@X,XvX_ i t : r t b K I w.<X+X@X@X@X+X_._._._.E.E.E.E.E.E.E.d.f.R.R.T.R.Y.a.",
"u.R.R.R.R.R.E.E.R.~.).).~._._.}.+X+X+X-XE.E.-X+X@X@X@X1X9.X + * 3 5 * + @ X r i.1X@X@X@X}.}.}._._.~.E.E.E.~.R.R.R.R.R.R.R.R.s.a.",
"u.R.d.R.R.^.R.R.E.~.)._._._.}.}.+X+X@X@X1.9.$X$X$X$X<X|.i O 7 w r r r w r 7 . T vX-X@X@X}.}.}.}._._.~.E.E.E.E.R.E.R.R.R.d.d.d.i.",
"u.R.d.f.R.^.).).).)._._._._.}.+X+X@X-XE.;.,.}.-X$X$X<X_.i % y z z h t h x h r + _ vX@X@X@X+X+X}._._.~.~._.).E.E.E.E.R.f.f.d.d.d.",
"u.E.f.R.R.^.)./._._._._._._.|.@X@X#X-X@X,.9.<X$X$X$X<X}.i t n c c j c v v c h + u }.<X@X@X+X+X@X}._._.}._.)./.E.).).R.R.f.d.d.d.",
"i.R.f.f.R.R.^.)./././._.}.}.|.@X@X#X-X@X>.u.<X-X$X-XNX9.% x c z z v j h f j z t % 1.mX@X@X@X@X@X}.}././._././.).).E.R.R.f.d.f.d.",
"i.E.R.^.^.^./././.`.`.|.|.|.@X@X$X$X-X_.;.u.<X-X-X-XNX9.0 x y r r h f : = r f v : 1.BX$X#X@X@X@X|.}.}.}._._._.).).^.^.R.f.f.f.f.",
"i.^.E.E.^././.`.`.|.{.|.@X@X@X#X$X&X<XE.;.u.<X-X-X-XNX<XD t r = 0 h h 0 0 r t c y ~ .X<X#X#X#X#X|.|.}.|.|._._./././.^.^.^.f.f.f.",
"i.^.^.^.^./.`.`.`.|.|.|.|.@X%X%X%X%X:Xd.;.d.<X-X-X<X;X2.D h t t h z z j z z z n n s ' %X<X#X#X#X|.|.|.|.|.{.{./.`././././.^.f.f.",
"i././././.(.(.{.{.|.|.|.XX%X%X%X%X%XpXi.;.f.vX-X;X1X&Xs k S c z z g f f z c v S n s J <X:X%X&X&X%X%X#X|.|.|.|.{.{./././././.k.k.",
"k./././././.(.`.|.|.|.XXoXoX%X%X%X%X:Xu.;.f.vX:X:X:XNX .a S v z f t f f t j k S t j OXNX*X-X%X%X%X%X%XoX|.|.|.|.|.|.`.`.`.(.(./.",
"k.(././.(.`.`.{.|.XXXXoXoXoX%X%X%X=X:X9.) f.mX:XpX:XmXNX^ j c f f f g f f j k f ^ mXNX*X;X;X=X*X%X%X%XoX%XoXoXXXXXXX{.`.|.{.`.(.",
"k.(.(.(.(.`.(.|.XXXXoXoXoXoX%X%X%X:X=X3.>.(.vXpXpXpXuXmXBX^ > z v j f z v v j , k.SX=XuXuXuX;X=X=X*X%X%X%XoXoXXXXXoXXX|.XXXX(.`.",
"k. X(.(.(.{. X X XXXoXoXoXoXoXOX=XpXoX1.,.(.vXpXpXpXpXpXBXuXz > z z j g f z j h k.BXpXuXuX;X;X;X=X*X*X*XOXoXOXOXoXoXoXXXXX XXX{.",
"l. X'. X X X X X XoXOXOXOXOXOXOX=XaXoX1.>.l.mXpXpXpXpXpXpXBX9Xn , f f t t f g f l.BXpXaXuXrXrXrX=X=X=X*XOXOXOXOXoXoXoX X X X X X",
"l. X X X X X X X.XOXOXOXOXOX9XrXrXgXV.,.>.l.mXaXaXaXpXaXaXaXSXg., g g f g j g , g.GXSXMXaXrXrXrXrXrX=X9X5XOXOXOXOXOX X X X X X X",
"l. X X X X X.X.X.XOX5X5X5X9XrXtXtXtXi.,.>.l.aXaXaXaXaXaXaXaXMXrXK k k k k j j g K w.R C :XSXtXtXrXrXrXrX5XeXeX5X5XOXOXOXOXoX X X",
"l..XV.V..X.X.X3X3X5X5X5X9X9XtXtXsX9Xj.3.3.l.yXgXyXaXaXaXaXaXgXMX/ g v c v k v h %       E N.yXMXVXMXNXmXrXrXrX9X5X5X5X5X5X5X.X.X",
"l..X.X.X.X2X3X3X3X3X3X5X9X9X0XtXhXV.>.;.>.,.tXhXyXaXaXaXsXyXCXyXA c c v k m t $ 1 3 3 ; a R !.>X}.4XN.4XBXMXtX5X0X0X6X5X5X5X5X3X",
"l.2X2X2X2X2X2X3X3X3X3X6X6X0X0XsXsX>.R ) ) ! w.MXsXsXgXhXsXhXGX4.O h n k c t # 1 5 5 3 + B <.<.Z V [ ] ] X.Z.hXyX6X0X6X6X5X5X5X3X",
"V.3X2X2X3X3X3X3X3X3X6X6X0X0X0XsXsX;.Q ! ! ! g.VXMXCXyXyXCXCX4.1 @ 5 h c r # 3 5 5 5 % 8 N N 8 % u 3 a s a s 5.VX0X0X0X6X6X3X3X3X",
"Z.4X3X3X3X4X4X4X4X6X0X0X0X0XwXlXV.Q ;.l.w.! w.CX4Xg.Z.7.+.H O @ 4 < 0 t 3 6 6 6 6 5 3 M M 8 < 5 $ @ t ' d s a 8.CX0X0X0X0X0X4X4X",
"Z.S.S.S.4X4X4X4X8X8X8XqXwXwXwXlX4.G 4.GXsX;.3.lX+.8.dX#.| } } n 7 < 0 0 4 6 3 1 4 5 M 8 3 8 * 3 1 6 e ; ` ` s [ SXCX0X0X0X0X8X8X",
"Z.S.S.S.S.S.S.S.8XqXqXqXqXwXlXS.) R V.ZXlX3.) sXS.2.^ I &.*.*.*.| k g 2 < 3 5 7 = 3 M 6 3 8 * 3 3 6 O V E o.o.s [ N.lXqXqX8XqXqX",
"Z.S.S.S.S.S.4X4XqXqXqXqXqXwXlX4.T _ lXlXcX6.>.3.B O < 4 r P $.=.C.*.| m $ @ i m d 6 M 3 6 8 $ * 6 7 F Y V J o.] s s M.FXlXlXwX4X",
"Z.D.S.S.S.S.S.4X4X8XqXqXwXwX2.U U ) 2.2.3.>.>.u . 8 e + 4 < 7 K v.C.*.&.| n v v q 4 M * 1 < . . O 9 Y B 6 B E J F l [ M.4.4.dXlX",
"Z.D.S.S.S.S.D.D.D.qXqXqXzXqXG U ! ! Q Q Q ) ! 6 $ e 4 i V 1 @ @ 7 P $.$.*.v.| J j @ @ . 7 { | [ x A B u x F N B B V Y ( V V ( g.",
"A.F.D.D.D.D.F.F.F.7X7XdXzX2.U Q Q Q Q ( W >.R O u 7 @ u B # 5 6 < % > t P z.%.%.@.} k = [ m.P.jXv.@.#...#.#.r O w u 9 B Y :.-.Y ",
"S.qXqXqXD.7XwXwXwXqXqXlX6.F R T _ 3.w.Z.h.j.R . 7 * $ 6 6 5 5 6 4 q - @ O r J { { | $.@.| } $.m.m.| %.x.#.n.x.o . B 5   . e Y S ",
"2.4.3.4.w.6.4.3.w.j.l.4.G T T :.l.V. X.X2XsXR . 5 * * 6 5 5 5 6 4 q 0 4 # . $ t } c.z.$...{ { [ X.$.@.%.%.z.H.@.    w 5 . o a s ",
"~ ) ) _ 2._ W H ^ 2.>.Q U T ( 4.3.3.6.4.w.l.H . 5 * 5 6 5 5 5 5 3 > 0 4 5 5 # J P.GXAXP.b.X.}  .{ ....| @.x.n.n.{   . 6 # o a s ",
"W ~ ^ ^ ^ ~ H W ~ ~ H G T T _ _ +.2.2.4.6.j.H . * * 9 6 5 5 5 5 5 > 7 1 7 i u J b.xXFXZXZXfX%.[ { #.%.@.....z.C.C.n   * * O - s ",
"W W ~ ^ W ~ ~ ~ ^ ~ W T T Q ~ T ( ( Q _ O.>.V O + * 9 6 5 5 3 6 5 > 5 6 * 3 # J %.&.L.L.jXZXxXn.} [ ..%.x.@...%.n.#.:   * @ + a ",
"H R ~ ~ ~ ~ W W H R W T G U W ( :.>.2.4.4.2.u O + 7 9 6 5 3 3 4 0 > 3 6 1 . r %.P.n.v.m.P.jXjXjXI.n.$.| | @.%.%.$.%.} X O + O X ",
"F H T R T R T H H H F G ~ +.7.h.Z.8.M.A.7.2.7 O $ 9 9 5 3 3 3 4 : > 1 6 O = b.m.G.kXK.n.H.I.jXxXZXZXxXn.@.} [ } ..@.v.} . + + . ",
"F G F H H ~ W R H F T / +.A.D.h.8.7.7.h.7./ 5 # * 9 6 5 3 3 3 < ; : < 6   K I.J.b.P.cXzXK.J.kXZXAXZXAXcXP.b.%...} [ } $.t . + X ",
"D W ~ ~ / +./  .2._ 7.8.M.g.4.h.A.F.F.A.7X+.O $ $ 9 6 3 1 1 3 & ; - 4 O i x.H.xXK.G.xXFXFXzXP.jXcXcXcXcXjXP.J.H.b.#.#.@.t . + X ",
"2.8.A.h.8.h.h.7.7.8.7.7.h.K o / h.8.7.4.h.^ O * $ 9 5 * 3 3 1 * a = 1 .  .P.B.xXkXG.jXZXAXGXcXJ.J.jXjXjXfXL.H.H.H.n.n.c.t . X . ",
"+.+. .+.+. . .I D I / I L K g D I D D L L i # * 5 9 5 5 3 3 4 o J C O . 5.jXn.P.cXzXG.kXxXcXFXcXP.H.m.B.B.m.m.H.C.b.n.c.r   X X ",
"y y t t y t t y h x x y A H t ~ I y x b x w # 3 6 6 5 5 3 3 4 a t 8 & . #.xXc.G.kXFXK.B.jXxXxXxXkXP.G.b.c.b.n.n.b.c.H.c.=   X X ",
"x x b x x b b b n b y A A i u F ~ b A D D r O 5 5 6 5 3 $ 3 3 a - # 1   #.ZXA.v.fXcXxXn.G.L.J.J.P.I.jXP.G.n.n.c.c.c.H.%.  . X X ",
"p b b x x A A x b b p A x x b F H y p x b r O 5 $ 5 5 3 1 3 = a % 4 $ O x B.P.c.n.L.P.jXG.b.n.G.H.H.H.H.H.P.P.G.x.x.v.k   + + + "
};
