/* XPM */
static char *c16f8eb7bd504a18cdc5dc48951e33210kcBUqb99SovlNBZ[] = {
/* columns rows colors chars-per-pixel */
"64 64 256 2 ",
"   c #010102",
".  c #04030B",
"X  c #09050B",
"o  c #0C0A0C",
"O  c #090706",
"+  c #120B0C",
"@  c #13120E",
"#  c #050413",
"$  c #0A0614",
"%  c #0C0B12",
"&  c #0C0B1B",
"*  c #080519",
"=  c #120D13",
"-  c #160B1A",
";  c #141214",
":  c #14131B",
">  c #1C1A1C",
",  c #1A1519",
"<  c #0E1117",
"1  c #250C19",
"2  c #28151A",
"3  c #321613",
"4  c #24221E",
"5  c #392914",
"6  c #0B0726",
"7  c #140A27",
"8  c #141324",
"9  c #15132A",
"0  c #1A142B",
"q  c #1B1926",
"w  c #0B0836",
"e  c #140C36",
"r  c #141233",
"t  c #1A1738",
"y  c #0C112D",
"u  c #261B26",
"i  c #241B38",
"p  c #331A2B",
"a  c #1C232C",
"s  c #232324",
"d  c #24232B",
"f  c #2B2B2B",
"g  c #2A2527",
"h  c #282638",
"j  c #352B36",
"k  c #373637",
"l  c #322D2A",
"z  c #493710",
"x  c #462A28",
"c  c #48393A",
"v  c #513334",
"b  c #66383A",
"n  c #713C3D",
"m  c #441F2E",
"M  c #4B423B",
"N  c #6D4B3C",
"B  c #1B1A44",
"V  c #101049",
"C  c #241C45",
"Z  c #2C0D51",
"A  c #282546",
"S  c #352948",
"D  c #3B3946",
"F  c #372A57",
"G  c #3A3358",
"H  c #2B2554",
"J  c #181E64",
"K  c #2F0C6B",
"L  c #192468",
"P  c #35296C",
"I  c #172351",
"U  c #493B47",
"Y  c #543D44",
"T  c #473658",
"R  c #4C3153",
"E  c #6C3C49",
"W  c #473666",
"Q  c #473776",
"!  c #4D356B",
"~  c #421F43",
"^  c #37447A",
"/  c #314755",
"(  c #474747",
")  c #554449",
"_  c #494855",
"`  c #564858",
"'  c #575658",
"]  c #535150",
"[  c #654A47",
"{  c #764747",
"}  c #695856",
"|  c #765A58",
" . c #724F4F",
".. c #72635C",
"X. c #585667",
"o. c #4C4477",
"O. c #564677",
"+. c #5A5675",
"@. c #4D4C6B",
"#. c #654977",
"$. c #6B5377",
"%. c #755A75",
"&. c #765A78",
"*. c #715269",
"=. c #586673",
"-. c #686668",
";. c #766769",
":. c #6A6974",
">. c #7B6579",
",. c #787976",
"<. c #71736C",
"1. c #87554A",
"2. c #845B57",
"3. c #89534E",
"4. c #866159",
"5. c #95605F",
"6. c #925C70",
"7. c #896563",
"8. c #856B78",
"9. c #86737A",
"0. c #976F6E",
"q. c #A47D78",
"w. c #A66B6D",
"e. c #7D807B",
"r. c #84847E",
"t. c #948275",
"y. c #A78178",
"u. c #2D2E8A",
"i. c #4B3B88",
"p. c #4F378A",
"a. c #430F95",
"s. c #3758A4",
"d. c #564689",
"f. c #5B5488",
"g. c #574795",
"h. c #4D4890",
"j. c #6B5686",
"k. c #7B5B86",
"l. c #675798",
"z. c #7D5B92",
"x. c #795797",
"c. c #694A90",
"v. c #796386",
"b. c #7B7397",
"n. c #736D8C",
"m. c #574DAD",
"M. c #6958A5",
"N. c #7856A7",
"B. c #794CB6",
"V. c #7D52B3",
"C. c #7856B8",
"Z. c #6A4EAE",
"A. c #5462BA",
"S. c #7464AA",
"D. c #6F61B3",
"F. c #7365B5",
"G. c #7364BB",
"H. c #7669BB",
"J. c #7A6BBC",
"K. c #7B69B5",
"L. c #7467AC",
"P. c #5E7188",
"I. c #1055CA",
"U. c #266DED",
"Y. c #2679F3",
"T. c #2C77EE",
"R. c #226EDF",
"E. c #7A55C6",
"W. c #7A55D4",
"Q. c #6D54C6",
"!. c #7A6AC6",
"~. c #7369D2",
"^. c #7377ED",
"/. c #5866CD",
"(. c #815E8A",
"). c #825C98",
"_. c #9D5F88",
"`. c #83628B",
"'. c #846985",
"]. c #856294",
"[. c #85629B",
"{. c #8A669A",
"}. c #887592",
"|. c #A67586",
" X c #845CA3",
".X c #855AAB",
"XX c #8459A8",
"oX c #8356B3",
"OX c #804FAF",
"+X c #8961A6",
"@X c #8576B9",
"#X c #8A74A7",
"$X c #A472BA",
"%X c #8255CD",
"&X c #8978C9",
"*X c #8D7AD8",
"=X c #927CDC",
"-X c #917DD3",
";X c #8E6FD3",
":X c #A370CE",
">X c #947CE4",
",X c #967DEC",
"<X c #987DEC",
"1X c #967DF3",
"2X c #997DF3",
"3X c #997BFD",
"4X c #9678FB",
"5X c #8E6FE9",
"6X c #955AE3",
"7X c #2A8BBB",
"8X c #7D8592",
"9X c #3697CC",
"0X c #1985F8",
"qX c #2688F9",
"wX c #36ABF2",
"eX c #489BCE",
"rX c #46A4DA",
"tX c #6F8BF3",
"yX c #49AAFD",
"uX c #55ABFE",
"iX c #4CAFEF",
"pX c #69A5FD",
"aX c #6EACFE",
"sX c #4F91F7",
"dX c #62CAFE",
"fX c #848482",
"gX c #898B87",
"hX c #949589",
"jX c #8B8798",
"kX c #9A9894",
"lX c #938A8E",
"zX c #A78D8F",
"xX c #9EA19A",
"cX c #9995A7",
"vX c #938DAE",
"bX c #A29DB2",
"nX c #A7A5A5",
"mX c #AAA7B6",
"MX c #B4B1B7",
"NX c #A2A19D",
"BX c #9784DA",
"VX c #9589C9",
"CX c #A496CD",
"ZX c #B9B3CE",
"AX c #9B85E9",
"SX c #858CFF",
"DX c #8A88FF",
"FX c #9786FA",
"GX c #9193FC",
"HX c #A488FF",
"JX c #B28CFF",
"KX c #A68EEB",
"LX c #A9ADF0",
"PX c #C2BAD7",
"IX c #C3BBE0",
"UX c #C8C1DE",
/* pixels */
"+                                                                                                                               ",
"1                     O O . . O   O   c U u T R T T W W W ! ! ! ! ! ! ! W Q Q Q h.Z / u.s.s.^ P C 7 6 7 t H Q i.d.d.d.p.p.p.d.i.",
"E k >       . . . . . o o X X o o =   '.|.Y CX$X:X:X:X:X:X:X:X:X6X6X6X6X6X6X6X4XDXa.9XqXT.T.Q.Q.E.Q ;X5X,XHXJXJXJXJXJXJXJXJXJXHX",
"2.,.<.] f @           . . X X X o +   &.8.v #X{.+X+X+X+X.XoXoXoXoXoXB.B.B.B.E.Q.^.K 7XT.R.sX*XFXJXp.JXHXHX3X3X3X3X3X3X4X4X4X3X4X",
"7.,.,.gXr.<.( s     O   . X O O o o   &.'.c #X{.+X+X X.X.X.X.XOXOXOXB.B.B.B.E.W.^.K 7XU.aXaXGXFX3Xp.HX3X3X3X3X3X3X3X3X4X4X4X3X1X",
"7.8XfXgXgXgXgXr.] M ( O X O O o o o   &.'.c #X{.+X+XXXXX.X.X.XoXOXoXoXB.B.E.%XW.^.K 7XU.uXpXSXDX4Xp.HX3X3X3X3X3X3X3X3X4X3X3X3X4X",
"7.gXfXgXgXgXgXgX,.,.-.-.4 O o o o o   &.8.c #X{.+X[. X.X.X.XoXoXoXoXoXoXB.E.%XW.^.K 7XU.uXpXSXDX5Xm.FX3X3X3X3X3X3X3X3X3X3X3X3X4X",
"7.gXfXgXgXfXhXfX,.,.r.r.( O o o o o   &.8.c #X{.{.+X+X+X.X.X.XoXoXoXoXoXB.E.%XW.^.K 9XU.uXpXSXDX5XZ.FX3X3X3X3X3X3X3X3X3X4X4X3X1X",
"4.gXfXgXgXr.hXr.<.,.e.fX'   o + = = O &.8.c #X{.{.+X+X+X.X.X.XoXoXoXoXV.B.C.%XW.^.K 7XU.uXpXSXFX~.C.3X3X3X3X3X3X3X3X3X3X4X3X3X,X",
"2.e.fXgXhXr.hX,.<.,.<.hX( O o ; o ; O v.8.c #X{.{.[.+X+X.X.X.XoXoXoXOXV.B.B.%XW.^.K 7XU.uXpXSXDXW.!.3X3X3X3X3X3X3X3X3X3X2X3X3X1X",
"2.:.fXfXfXr.fX,.<.fX-.fX( O o @ o ; o '.8.Y #X].{.[.+X X+X.X.X.XV.oXV.V.B.B.%XW.tXK 9XU.uXpXSXFXQ.;X3X3X3X3X2X2X2X2X2X2X2X2X2X,X",
" .<.,.,.,.r.,.e.,.r.<.,.( O o @ + ; + '.8.) {.].{.[.[. XXXXX.X.XoXoXV.V.V.B.%XW.^.K 9XU.uXpXSXFXQ.=X3X3X3X3X2X2X2X2X2X1X2X2X2X>X",
" .-.,.,.,.,.,.,.fX,.,.r.k O o ; = ; + '.8.) {.].[.[.+X+XXX X.XXXoXoXN.V.V.B.E.W.^.K 9XU.uXpXDXGXm.>X3X3X3X2X2X2X2X2X1X1X2X2X<X,X",
"q.:.n.,.,.n.,.,.( ,.<.' ' O O ; = ; = '.8.) {.].].[.[. XXX X.XXXXX.XV.V.V.B.E.E.^.K 9XU.yXpXDXGXm.<X3X1X2X2X2X2X2X2X,X,X,X,X<X,X",
"|.vXvXn.jXn.jXjXj _ lX] j -., O + ; o '.9.) {.].].[.[. X X XXXXXXX.XV.V.V.B.E.E.^.Z 9XU.yXpXDXGXm.AX3X1XFX<X2X2X2X<X,X,X,X<X<X>X",
"|.vXCXbX+.$.#X$.jXf._ lXj D k > X = o '.>.` {.].{.[.[.[. X X XXXXXN.N.V.V.V.E.W.tXZ 9XY.yXpXDXGXg.HX1X1XFX<X2X2X<X<X,X,X<X<X<X>X",
"q.CXvXIX0 jX@.+.P.CX7 G jXh _ k u & O '.&.) }.{.{.[.[.). X X XN.XXx.N.V.V.V.E.W.^.Z 9XY.yXpXDXGXg.HX1X1X2X2X2X2X<X<X,X<X<X<X<X>X",
"q.CXcXZX_ n.-.' =.mXe L t :.j -.k t . '.'.U }.].{.].[.). X X XN.XXx.l.V.N.V.E.W.tXZ eXY.yXpXSXGXd.HX1X1X2X<X<X<X<X<X<X<X>X<X<X>X",
"|.vXcXIX+.-.,.D @.cXA H q :.: ,.k H . }.8.` }.].].{.].).).). XN.x.z.v.B.N.N.C.E.tXZ eXY.yXpXSXGXi.HX1X1X1X,X,X,X,X,X<X<X<X<X>X=X",
"|.jXbXZX@.j d j =.8X+.i h _ ; -.c A * '.7.} ].`.].].].).).).x.x.x.].k.N.N.N.C.E.SXZ eXY.yXpXDXGXi.FX1X1X1X<X<X>X<X>X>X>X>X>X>X=X",
"zXjXbXZXW * & j =.n.:.B t _ > D ( A r '.;.-.`.`.`.].].).).).x.x.N.z.j.N.N.N.C.Q.SXZ eXY.yXpXSXGXd.FX,X,X<X>X>X>X>X>X>X>X>X=X=X-X",
"zXjXbXPXo.& 8 u =.P.v.I V -.k q c t B '...;.`.`.`.].].).).).).x.N.x.z.N.N.N.C.E.*XK eXY.yXpXSXFXg.HX1X1X,X,X,X,X,X<X<X<X<X<X<XAX",
"zXvXbXPXO.& 8 1 X.+.n.V I _ j 0 U t C 8.| ;.v.`.`.].].).).z.x.x.x.c.x.M.N.N.V.E.Z.i.9XY.uXaXDXFXo.FXAXAXAXBX=X=X=X*X-X&X-X&X&X@X",
"q.vXbXUXd.& 8 1 ' @.n.w I q d 9 k t B '.| ;.'.`.`.(.(.).z.x.x.x.x.c.z.M.N.x.N.Z.g.i.9XY.I.s.h.h.S Q W ! O.! W W T F F F F F F T ",
"q.vXcXUXl.& 8 1 ` @.n.6 B h r 0 s h C '.| -.`.`.`.(.(.).z.z.x.x.x.j.x.M.N.x.N.C.Z.i.9XY.T./.G.G.! C.N.N.M.M.M.M.M.l.N.N.S.S.S.S.",
"y.vXcXIXl.& 8 1 U =.f.w 6 vXW 8 u G i 8...} `.`.`.`.`.z.z.z.z.x.x.x.x.N.N.N.N.C.Q.P 9XY.uXaXGXDXg.HXFXFXAXAXAXAXAXAXAXAXAXAXAXBX",
"y.bXcXIXl.* 8 1 c =.+.e 6 ZX@X6 u A 0 9...} '.`.`.`.].).).z.z.x.[.j.O.c.N.N.V.C.Q.P 9XY.yXpXSX^.d.FX,X,X>X>X=X=X=X=X=X=X=XBX=X-X",
"y.bXcXPXS.* 8 u j =.@.7 0 mXVXj.8 i 0 9...' '.`.`.`.`.z.z.z.z.[.O.C 0 i O.N.V.E.m.P 9XY.uXpXSX^.d.FX,X,X>X>X>X=X=X=X=X=X=X=X=X-X",
"y.mXjXZXL.* 9 q p =.@.6 i jXn.@X: h i 9...` '.`.`.(.`.(.z.z.[.! 7 - u # e N.C.E.p.P 9XY.yXpXSX^.g.FX>X>X>XAXAXAXBXAXAXBX=X=X=X&X",
"q.mXjXZXK.* 8 0 2 P.@.6 t jXb.W 0 D h 9.| U '.v.`.(.(.(.z.[.! 7 p [ *.R . O.C.E.M.J rXY.T.^.SX~.g.FX>X>XKX=Xl.o.W O.S.&XBXBXAXBX",
"q.mXjXZX@X* 8 9 1 $.=.y t _ D i q D h }.[ c '.(.`.`.(.(.].#.- p 2.0.|.|.~ C .XZ.!.V rXY.R.^.SX~.l.,X>XFXF.O.- D O.@.F F G W o.f.",
"q.mXjXMX@X# 8 0 1 X.P.t B d q 0 : U i }.c ( `.(.(.v.(.z.z.j X c 5.w.w._._.7 x.Z.~.w rXY.I.A.DX~.l.1XAX&XS D h BXAXBX&Xl.Q T S S ",
"y.mXjXMX@X* 8 9 - ` 8XH e D ] h % _ q }.) ) '.(.8.k.(.z.$.7 = ) 7.{ E 6.6.~ W Z.~.w rXqXI.^ DX~.l.4X*XS k o @XAXAXAXAXKXKXAXBXVX",
"y.mXjXmX@X* 8 0 - Y jXG e D :.j & _ q '...) '.(.(.k.k.z.O.S -  . .[  .2.E *.e M.^.w iXqXR.h.SX~.M.AXO.s > A AX=XS.d.@X&X-X-X&X@X",
"q.mXjXnX&X9 8 0 7 U #X@.6 X.gXd & D u 8.| ) '.k.k.k.k.j.j.T p 2.3.{ 5. .v *.6 g.^.w rXqXY./.tX~.M.S.} o 8 VXAXF 9 0 i A S A h 0 ",
"q.mXjXkX-X9 : 0 7 m #XO.6 X.fXu 8 k h '.| ) '.k.&.k.k.j.! C Y 5.n [  .*.{ E 6 d.^.w rXqXI.A.tX^.F n.<.& K.KXQ $ q kXf %         ",
"q.nXkXlX-X7 : 0 7 j b.+.6 D ' D 8 ' h '.| ) '.k.&.k.k.j.i 7  .3.{ { 3.6.x Y C p.tXw iX0XI.A.GXM.> ..] @XJ.o.7 , . kXnX  i S G T ",
"q.nXkXgXBX9 : 0 0 p b.n.6 _ :.}.h -.h v.| ) >.&.&.k.k.T 6 0  .3.6.5.{  .E E ! Q tXw iX0XY.tX~.h 4 o +.@XT q 4 o   f kXk n.&XVX&X",
"y.nXkXfXKXi : 0 0 p n.#Xe i D D i X.S k.} ) >.&.&.&.k.S 7 t [ 5.w.5.{ E _.6.! i.tXw iX0XwXpXH s + G n.X.:.l @ ; fX  j ' b.*X&X&X",
"y.nXxXgXKXA : 0 0 2 v.#XC e q d 0 h S $.} ) >.&.&.&.k.S q 8 ) 5.w.3. .b R R R Q /.w iX0XyXs.f ; s @._ -.] s % > MX  . 4 b.BXBX&X",
"y.nXxXgXKXF : 0 0 1 j.#XH r q d a 8 S $.} ) >.&.&.$.j.S g q [ w.w.{  .Y u h S H h.w iX0XI.tX6 > k , ] ,.k @ % ; > % % > @.f.d.O.",
"y.nXkXhXKXG & 9 0 - $.b.F e 8 a a 8 h #.} ) >.&.%.$.$.S ( q ) w.5.b 3 j g d h A Q w iXR.R.aXA.S l ; l ' _ * X = . : ; ; & & % % ",
"q.nXkXhXCXG % 9 9 - #.b.W e 2 d a q h O.} ) >.&.&.$.$.S l , c 0.1.x x s d d d h F e dXI.yXsXGXF f $   W &Xl.# O ; @ o . . . X X ",
"q.nXkXhXCXP % 8 0 - T }.W e v - , 8 U O.} ) >.&.&.$.#.S = = c 2.{ v [ s d g d d h H eXI.wXuXm.i @ W o.&X5XAXl.*     . T O.O.O.O.",
"0.nXkXhXvXi.o 8 8 - R }.O.w m ; > p x _ } ) >.&.&.$.#.T X o l 2.{ E E u f g d d h C L A.s.^ r & q &XBX-X=X-XAXS.t i f.VX-X-X&X@X",
"0.nXkXhXvXM.  8 8 8 ~ }.d.6 7 > q = 3 T } ) &.%.&.$.#.! X o 4 4.N n b u k f f g d D G X.' > q i h P P P Q d.l.@X@X&XBX-X&X&X&XK.",
"0.nXkXhXCXD.  8 8 8 i }.l.& 8 q : @ 2 X.[ ) &.%.&.$.#.W $ . g [ N n { g f f f g f ' ' ] } k . M.o.M.d.Q F H A C F G G ! d.l.L.K.",
"0.NXkXhXPXQ % 8 8 8 h }.+.$ & q # q f 8.[ U &.%.&.$.#.T X   c x N b b x s f f g k f -.' ' S . ~.h.5X>X*X-X&XL.l.O.W F i i 0 i i ",
"7.NXkXhXMXF % 8 8 7 _ -.8 . * ; 8 q d 8.[ Y &.%.%.$.#.W .   ) 3 b [ b p s f l g d s ' M h C h ^.i.^.~.!.&X;X;X&X&X&X&X@XL.l.O.T ",
"4.xXkXhXn.Q O 8 8 7 D   . . & , t B r 8.[ ) &.%.%.$.#.#.$   ) 5 x b 5 1 : > g s s f k 4 A h i m.h.~.!.!.&X!.!.J.J.J.J.!.!.&X&X@X",
"4.kXkXr.b.o.  8 8 7 D q O . u l r J t 8.[ Y %.%.$.$.#.O.$ . [ x 3 x 3 , = + u s , > s ( D g q P g.5X~.!.!.!.!.!.J.H.K.K.K.F.F.S.",
"4.kXkXgXgXG X q q 8 D ]   d M x r L t 8.[ Y %.%.$.$.$.T $    .N 3 l u = s ; o > % = k ( M k f F u.Q.~.!.!.!.J.J.J.J.H.K.K.F.L.S.",
"7.kXkXr.-.= : = = . ( :.  _ [ v y L t 8.) U %.%.$.$.$.i .   2.1.[ x 2 u u g . ; % , s f k ( k j P u.F.!.J.!.H.J.J.H.J.H.F.F.F.S.",
"7.kXkX9.'   : o % , ' :.o ' [ v r L t 8.) U %.%.$.%.! # j g 4.1.4. .x p , g % X : = > > f k M k A P B !.H.!.J.J.J.H.H.H.F.F.G.S.",
"7.xXNX}.' % f o % : ' } @ ' N v r L t 8.[ c %.%.$.&.S : ' | 1.1.1. .b u X ; o . < : , ; 4 l ( ( k * . M.!.H.H.J.H.H.F.F.F.F.F.S.",
"| gXcXb._ X ( f   . ; 5 @ ] N M w L t 8.[ ) >.&.>.` 7 & ' | 1.3.1.{ E u . X X % # : q ; > s k ( D : o l.!.H.H.H.F.F.F.F.F.F.F.S.",
"p h D S 8 % _ ]   %   5 + M N c w L t 9.` U T ` T 7 & * ' 0.1.5.1.{ b c $ X X X % * 0 q : > d ( j h o D.!.G.G.H.F.F.F.F.D.F.D.F.",
"2 y y t & % _ :.  % ; z O k N c w L t >.0 t 6 7 * 6 & 8 % lX{ 5.1. .x ` . . . . o & e 0 : ; q f , d 7 !.G.G.G.G.F.F.F.F.D.F.D.C.",
"2 r t t & % D hXX % 2 z > l N U w J A _ 6 w e y 7 6 d $ . ( 0.1.1.1.v ` . % % . O * e r S & , q : ( A ~.G.G.G.G.G.F.F.F.D.D.L.C.",
"1 & 8 t & < D nX; % 2 z h 2  .D w J h i e w e y y y y 6 _ % zX1.1.2.;.- & & : i $ * e t f.C = o _ k o.Q.D.G.F.F.F.F.F.L.S.S.S.C.",
" .-.:.b.q : _ kX. $ 3 z A > 4.D w J y 9 r r r e r r . :.MX:.u q.7.9.u # 8 6 6 C r * 7 6 G O.d : q # !.Q.G.G.G.G.F.F.F.F.D.C.S.C.",
"|.xXMXCXq a _ gX  % z z y 2 7.S w I y 9 r 0 r r e r G bXcXZX& ;.;.- 7 6 6 9 q w e e e e 7 G G H # Q ~.Q.G.G.G.H.G.G.G.F.F.F.F.C.",
"| -.,.+.$ k ] fX  % M 5 & , t.h w V 9 8 9 q 9 r r t CXvXcXMXmX, : D jXS r 8 s 9 e e e e 6 0 H L G H.Q.G.H.H.H.J.H.H.H.F.F.F.F.S.",
"+ . .     ; > s   O @ + . . g & # 6 X # # % % $ * # h h k j _ .   D k d & # X . # # $ . # $ . * 9 B C A A A A A A A A A h i i i "
};
