/* XPM */
static char *a1069079028b45a2bc7eb4aa76eeea37cmeT4ZIbyB4mJSPa[] = {
/* columns rows colors chars-per-pixel */
"64 64 256 2 ",
"   c #020203",
".  c #08080A",
"X  c #0B0D13",
"o  c #0B0D1A",
"O  c #060815",
"+  c #140D18",
"@  c #0D111B",
"#  c #0C1114",
"$  c #13131B",
"%  c #171718",
"&  c #120F09",
"*  c #25181F",
"=  c #1A211D",
"-  c #1B1C23",
";  c #171827",
":  c #181834",
">  c #0E0B29",
",  c #241D26",
"<  c #231933",
"1  c #210D36",
"2  c #1D232A",
"3  c #1D2633",
"4  c #0C2335",
"5  c #24252B",
"6  c #242A2C",
"7  c #2B2B2D",
"8  c #252626",
"9  c #35292B",
"0  c #2C2C33",
"q  c #272936",
"w  c #342D3B",
"e  c #2C323C",
"r  c #293236",
"t  c #33343B",
"y  c #383739",
"u  c #31352D",
"i  c #2F231D",
"p  c #44393A",
"a  c #4F352F",
"s  c #4E2E18",
"d  c #694B38",
"f  c #4D423A",
"g  c #1B1646",
"h  c #2D1B4F",
"j  c #1A2D4B",
"k  c #272746",
"l  c #352A46",
"z  c #383845",
"x  c #362754",
"c  c #323654",
"v  c #3B3567",
"b  c #31306E",
"n  c #443B48",
"m  c #463956",
"M  c #463966",
"N  c #433676",
"B  c #462E71",
"V  c #3C444B",
"C  c #2A4974",
"Z  c #335378",
"A  c #3F607C",
"S  c #434345",
"D  c #4C4B4C",
"F  c #474649",
"G  c #574A48",
"H  c #5C514E",
"J  c #494956",
"K  c #564A57",
"L  c #4C5454",
"P  c #525354",
"I  c #5B5B5B",
"U  c #565859",
"Y  c #4C504F",
"T  c #67544B",
"R  c #76584A",
"E  c #675956",
"W  c #745D56",
"Q  c #694B48",
"!  c #55615B",
"~  c #74635C",
"^  c #7C655A",
"/  c #6D6159",
"(  c #595964",
")  c #4C4579",
"_  c #524970",
"`  c #625A64",
"'  c #685679",
"]  c #685173",
"[  c #5C6463",
"{  c #5B6766",
"}  c #566676",
"|  c #646C6B",
" . c #676668",
".. c #776A66",
"X. c #686A74",
"o. c #756875",
"O. c #6C7473",
"+. c #767878",
"@. c #71716D",
"#. c #86685B",
"$. c #926D5A",
"%. c #846D63",
"&. c #896D65",
"*. c #8B7265",
"=. c #84736C",
"-. c #8B756C",
";. c #89766A",
":. c #947A6D",
">. c #977768",
",. c #8C7A74",
"<. c #867A77",
"1. c #937D73",
"2. c #997C74",
"3. c #936E65",
"4. c #A37B6E",
"5. c #855E57",
"6. c #7B817F",
"7. c #8A837D",
"8. c #998479",
"9. c #96836D",
"0. c #A28374",
"q. c #A6887A",
"w. c #B68C78",
"e. c #AD8A73",
"r. c #AF805A",
"t. c #C5927A",
"y. c #31358D",
"u. c #4B1C86",
"i. c #493988",
"p. c #532E91",
"a. c #6432A9",
"s. c #5939AB",
"d. c #355086",
"f. c #3B7292",
"g. c #074BB1",
"h. c #3774A8",
"j. c #3F56AC",
"k. c #574A8F",
"l. c #6A4C87",
"z. c #695688",
"x. c #735989",
"c. c #6A4D96",
"v. c #734C99",
"b. c #77529C",
"n. c #665597",
"m. c #467799",
"M. c #4F728D",
"N. c #796689",
"B. c #736F89",
"V. c #564CAB",
"C. c #7A4DA4",
"Z. c #774BA8",
"A. c #7A51A6",
"S. c #7B4CB6",
"D. c #6254B3",
"F. c #6657BB",
"G. c #7854B8",
"H. c #6850AA",
"J. c #477BA5",
"K. c #5374B0",
"L. c #716CAB",
"P. c #0757CE",
"I. c #3874F4",
"U. c #2762D0",
"Y. c #5459C5",
"T. c #794CC6",
"R. c #7A54C7",
"E. c #6955C9",
"W. c #7669CD",
"Q. c #477BFD",
"!. c #4D76E6",
"~. c #7778F6",
"^. c #7471EE",
"/. c #4E68D3",
"(. c #0B39C7",
"). c #84758D",
"_. c #8356AB",
"`. c #814CB9",
"'. c #8453B8",
"]. c #8067AA",
"[. c #8754D6",
"{. c #8551C8",
"}. c #8775D8",
"|. c #8370CC",
" X c #8D75EC",
".X c #8C76E3",
"XX c #9378EA",
"oX c #8B79FA",
"OX c #9577F8",
"+X c #8B6CF3",
"@X c #A37DFF",
"#X c #8255E0",
"$X c #7B8189",
"%X c #4B83A7",
"&X c #5588B9",
"*X c #5794B9",
"=X c #4E87B2",
"-X c #6B91AE",
";X c #5591AE",
":X c #3A8BFE",
">X c #2A8DFD",
",X c #39B3FF",
"<X c #38AEFF",
"1X c #5D99C4",
"2X c #5189C4",
"3X c #6A93CE",
"4X c #5EA5C9",
"5X c #6AAAD0",
"6X c #4F8FFC",
"7X c #7B89FC",
"8X c #659AFE",
"9X c #689AFD",
"0X c #7387F0",
"qX c #47A4FE",
"wX c #52A4FE",
"eX c #59A6FE",
"rX c #47B6FF",
"tX c #50B8FF",
"yX c #68ACFB",
"uX c #3BC4FE",
"iX c #63C1F2",
"pX c #3D8292",
"aX c #878787",
"sX c #988A85",
"dX c #9D928A",
"fX c #989595",
"gX c #8D8C93",
"hX c #A78D82",
"jX c #A99388",
"kX c #B79988",
"lX c #A89B96",
"zX c #B49A91",
"xX c #B7A398",
"cX c #ABA39B",
"vX c #8E91A9",
"bX c #ABA6A5",
"nX c #B7B5B5",
"mX c #B2ABAD",
"MX c #9CA1A6",
"NX c #C59B86",
"BX c #D39F8D",
"VX c #C8A896",
"CX c #CDA992",
"ZX c #E5B69C",
"AX c #D8BAA7",
"SX c #CBB6AE",
"DX c #E8BDA8",
"FX c #DAC2AF",
"GX c #E8C6B1",
"HX c #8C83D9",
"JX c #8585FE",
"KX c #9C83FF",
"LX c #9888FD",
"PX c #8E90FA",
"IX c #AA88FF",
"UX c #E5D2CB",
/* pixels */
"* + , 7 7 9 y * & X % S y 7 % p U 7 8 8 7 7 aXnXfXH K N.N.N.N.N.x.x._._._._._._._.G.S.S.S.{.{..Xs.b tX!.6X9XPXOXOXKXi.|.OXOXOXOX",
"% . & % 8 7 V 0 8 8 % S  . .7 p D 7 7 t 7 I bXgXnX .` N.N.x.x.N.x.b.'.'.'.'.'.'.'.`.`.`.{.[.#X+Xa.b uXI.wX8XJXOXOXKXi.XXOXOXOXOX",
"%   . . % = 7 2 0 y y aXfXgXy P F 7 7 z I @.aX@.bX .J ' N.x.x.x.l._._._._._.'.'.'.`.`.`.{.[.#X+Xa.b uXI.wX8XJXOXOXKXp.KXOXOXOXOX",
"%       . . X % 7 y  .mXfXgXP P y 8 7 U <.@.+. .gX` 0 l ` N.x.x.x.A._._._.'.'.'.'.S.S.S.{.[.[.^.a.b uXQ.wX8XJXOXOXKXp.IXOXOXOXOX",
"%             . # D aXaXaX+.+.F 7 8 y I  . .+. .+.o.F 7 w ' x.x.l.A._.A.C._.'.'.'.S.S.S.{.[.#X^.a.b uXQ.wX8XJXOXOXOXp.IXOX@X@X@X",
"%                 I aXI U I | ( y S D H / <.gX<.@.fXgXy 9 n x.N.x.v.x.v.C.C.'.'.'.`.S.S.{.[.[.^.a.C uXI.wXeXJXKXKXOXp.IX@XXX[.H.",
"%               . I +.Y 7 D P O.I Y D =.sXlXmXsXsXbXnXS 8 w ' gXN.x.l.v.b.C.'.'.'.S.S.S.'.[.[.~.a.C uXQ.yXyXJX XW.F.x p.B x h x ",
"Y r % .         8 P  .Y 8 S Y [ I U =.lXlXbXnXlXsXlXmXI % F X.MX).N.l.v.v.C.'.'.'.S.S.S.S.[.[.~.a.C ,XQ.U.U.y.y.b b x s.H.G.|.OX",
"@.| | I 7 2     y L I Y % 8 D D  .bXlXlXcXbXmXlXdXsXdX7.u  .+.gXMX).l.l.c.v.A.S.S.Z.Z.Z.S.T.T.^.p.C <XQ.g.U.Y.W..XE.H.IXKXKXOXOX",
"O.| +.| | { Y 0 Y F U S # # S y fXSXbXmXnXcXlXlXcXsX,.sX . .( gXfX).x.x.l.v.v.C.C.Z.Z.Z.S.S.T.^.p.C ,XQ.yXyXPXLXLXE.G.OXOXOXXXOX",
"O.| +.{ { [ +.{ +.| O.D % 8 S F mXnXnXbXnXbXlXlXlX8.-.aX@.[ n B.+.N.).N.l.c.v.C.C.C.Z.Z.S.R.T.~.p.C ,XQ.eX8XJXJXLXV.|.OXOXXXXX+X",
"O.| +.{ | ! $XI | +.6.O.U |  .V lXnXbXlXcXfX<.8.dX8.1.,.@. .y P ( N.N.N.x.l.v.C._.C.S.S.`.R.T.~.p.C ,XQ.wX8XJXJXLXs.}.OXOXXXXX X",
"O.{ +.{ | [ $XI U O.+.+.aXgXgXI dXcXdXdXfXfXdX=.%.q.8.=.@./ F n K N.N.N.N.l.v.C.A.Z.Z.Z.S.R.T.~.p.C ,XQ.wX8X7XJXLXp..XOXOXOXOXXX",
"O.{ +.[ | U $XU U O.+.O.aX6.aX@...8.jXsXbXcXlXjX^ >.q.;.~ E D n n ' N.).N.l.v.A.C.Z.Z.Z.S.R.T.~.p.C <X6XwX8X7XJXLXi.XXOXOXOX X X",
"O.{ O.! U D $XL L O.+.O.+.O.+.H T ;.hXjXlXsX8.jXhX>.q.1...E D w w _ ).).N.l.v.A.A.C.C.Z.G.R.T.^.p.C <XQ.wX9XJXJXLXi.KXOX X X X X",
"| { | ! L Y +.L Y | O.O.+.[ O.F 7.%.8.jXsX,.:.:.kXq.0.8.<...Y w w _ ' N.x.l.b._.C.C.C.Z.G.G.T.^.p.Z <XQ.wX8XJXJXLXN KXOX X X X X",
"[ | [ [ U I O.U U | | O.O.! { E 7.#.q.8.8.E R :.hXhXsXdX7...@.` J m _ x.z.l.b.A.C.C.C.Z.S.G.T.~.p.Z ,XQ.wX9X7XJXOXN KXOX X X X X",
"[ L | { [ O.| | | | { O.| [ [ ..%.1.8.1.1.Q hXW jXhXdXlXsX+.fX+.( n M x.l.c.A.A.C.C.C.Z.S.G.T.~.p.Z ,XQ.wX9X7XJXoXN KXOX X X X X",
"X.V L | [ U | | { { | 6.{ { { T %.8.:.:.#.-.xX^ q.jXhXlXdX+.aX` m ' M ' l.c.A.A.C.C.A.Z.S.G.T.^.p.Z rX6XwX9X7XJXoXi.KXOX X X X.X",
"X.B.X.| q 0  .| { | | +.[ X.[ f 0.1.:.2.*.*.:.2.0.hXhXsX<.U  .Y z m m ] l.c.b.b.C.C.A.Z.S.R.R.~.u.Z rX6XwX9X7XJXoXk.KXOX.X.X.X.X",
" .gXmX$X; z 0 z | O.| +.@.X.I R kX1.:.q.:.:.8.8.q.q.q.1...H ( F w < x ] z.l.c.v.v.Z.A.Z.S.G.R.0Xu.d.rX6XwX9X7XJX^.k.KXXX.X.X.X.X",
"` xXvXvXB.J n o.aX .| +.+.( D -.zXq.:.hXq.8.q.hXq.q.8.1...H ( U w ; 1 m N.l.l.c.v.v.A.C.Z.G.R.~.u.d.rX6XqX8X7XJX^.k.OXXX.X.X.X.X",
").SX).-XvXgXbXxX,.<.aX( | U p ^ :.d 2.8.hXhXjXjXjXhXsX8. .D D  .z ; : l N.z.l.l.v.v.A.v.Z.R.R.0Xu.A tX:XqX8X7XJXE.n.OX X.X.X}..X",
"SXxXo.vXB.MXlX8.#.2.8.E | [ S W W T :.1.jXw.jXzXlXjXdX7.H n y U y ; < l ).z.l.l.c.Z.A.v.Z.G.R.0Xu.} tX:XqX8X7XJXE.n.OX X.X}.}..X",
"AX:.o.gXlXxX-.d R #.#.~ +.B. .%.%.1.,.1.jXkXkXzXlXlXsX=.F t y S z $ < l B.N.] l.z.Z.b.v.A.G.T.0Xu.} rX:XqX8X7XJXE.H.OX.X.X}.}.}.",
"AXR o.1.zXjXR R R i T ..aXaXgX=...~ =.2.jXzXzXzXlXjX8.W y t V F P ; , l N.N.] l.' b.b.v.A.G.S.0Xp.M.rX:XqX8X7XJXY.L. X}.}.}.}.}.",
"AX5.o.,.jX^ R 3.a & f @.aX<.7.,.dX=.%.2.jXcXlXlXjXhX8.W y y F L U t t l N.N.' l.' A.b.b.A.G.S.7Xp.M.,X:XqX8X7XJXV.L. X}..X}.}.}.",
"AX3.o.aXhXR *.R & % u / 7.lX7.lXmXlX1.,.jXlXlXjXjXq.8.W y y D V I P J m ' N.] _ ] n.l.z.A.G.S.7XB M.,X:XqX6X7XJXV.L..X}..X}.}.}.",
"DX>.` lXjX$.w.W & * 9 sX8.jXlXbXmXlXlX,.1.jXjXhXhXq.2.T p t F F  .O.P K c J m q q k l x ) G.G.^.i.Z rX:XqX6X7XJXV.L. X.X}.}.}.}.",
"GXVXE cXjX$.kX^ . 8 lXVXzXjXjX<.sX<.sX7.*.jXq.q.hXq.2.G y 0 F D P  .Y P z w z 3 2 q q e l k.G.E.c.f.rX:XwXeXPXLXs.}.XXXXXXXXXXXX",
"GXGX-.sXq.$.NXT   dXVXxXmXhX*.W W &.=.,.&.q.q.hXq.8.1.T y 5 y F z F F J z e q q 3 q r r e k H.V.i.J.rX:XI./.D.E.N k.k.n.n.n.n.k.",
"SXUXzX8.0.w.t.d a AX>.8.jXw.Q T Q 3.1.-.#.4.q.kXq.9.,.~ D 0 5 7 0 t F F z z q 2 2 q r r e q i.n.B J.rXI.(.d.b b x h x x x x x x ",
"..GXVXkXe.t.w.$.0.9.e...w.w.a Q R >.:.q.3.>.w.kX0.9.,...` F 7 $ - 0 z t 0 e e 2 2 q q r e z c D.B J.,X:XqX8X0XPXi.|.}.}.}.}.}.}.",
"9 zXVXCXw.t.r.kX8.9.:.E NX0.9 a R 3.4.hX0.>.w.w.>.1.,.+. .z D 0 # - q q 5 q t 2 2 q q e e z k Y.B h.<X:XqX8X7XPXi.}..X.X}.}.}.}.",
"9 %.xXVXt.r.r.1.=.e.E o.kX*.* y Q R 0.q.8.0.e.e.>.:.,.<. .F P F $ $ 5 0 q e e 2 ; 3 q e e z k V.x h.<X:XqX8X0XJXN }.}.}.}.}.}.|.",
"t G zXCXt.d 9.~ 9.0.a sXkX^ + p Q R 4.q.:.4.0.0.>.;.=.<.@.I F S - $ 7 0 q q q ; 2 3 q e z e 3 c v h.,X:XqX8X~.JXN }.}.}.}.}.}.|.",
"t F zXZXVXa d >.w.#.9 xXw.T + p G 5.0.8.-.1.q.0.:.;.^ ..` I F t - o % - 5 5 2 ; 2 3 r e 3 ; o ; N h.,X:XqX6X~.JXv }.}.}.}.|.|.|.",
"t D jXDXVXE s NX$.3.%.xXjXH , p Q ^ 2.*.;.:.q.8.*.%.W T P P F - 0 5 S 7 ; ; ; ; 2 3 3 ; @ @ o ; v f.,X:XU.!.~.JXv }.}.}.|.}.HX}.",
"t F 8.DXZX%.$.t.w.NXkXkXjXG l i T #.3.=.=.,.1.*.%.^ T G E F S - 0 t F y , q 0 e ; ; @ o @ @ @ o h f.,X:XP./.~.oXN }.^.XXHXL.n.n.",
"z F <.AXGXt.>.NXZXNXkXkXhXm J , H #.&.=.=.=...^ ^ E G T ..F y 0 , 7 y 8 n J F 5 o O O o o o o o g f.<X>XP.Y.~.oXN }.oXW.i.M < q ",
"t D ..DXGXt.$.NXCXBXkXkX-.M _ y G ~ ..~ ~ W W W ..G G ~ %.H 7 0 - - - o ; ; $   O O o o o o o @ 1 pX<X>Xg.y.~.~.b PXW.x J t ; L.",
"t F <.AXGXBX>.w.CXCXNXjXW ) ) m n T ~ / T T T E ..G E ..*.E , 5 % # X X O O O o o o o o o o # $ : M.<X>Xg.b ~.~.b |.k K L O ].}.",
"t S @.FXGXZX4.4.CXCXVXjXK N ) J w G E T G G G E  .E ..=.*.W % - % $ $ + O o o o o X X o o X # @ : c :X>XP.V.~.^.v v u F O _ HXW.",
"t F ..FXGXDXw.>.NXVXkX8.K v ) m z p F F G G H E ~ ....=.*.W + - % $ $ o X o o o o o X X X X # $ , : U.>XP.Y.~.W.J 5 u ; : vXW.}.",
"e J E FXZXZXt.>.kXVXjX%.K i.) M l , 7 p p H ........=.,.-.~ * ; % # # X X X X . o o X X X X # $ : o j.>Xg./.~.z.fX5 , > L.}.|.v ",
"e J o.AXZXBXw.>.kXkX8.W K i.k._ : , 7 p S E ..=.<.=.=.,.-.^ 9 ; $ # # X X X X $ o X X X X X X $ : o j.>Xg.Y.d.gXbX% O z.HX.Xv o ",
"q V o.FXZXBXe.>.q.q.%.H K i.) ) : 0 0 u G ..,.,.,.<.=.,.-.W p ; $ # $ X X . X t 0 # X X X X X o ; ; b :Xh.b e cX .p ) |.W.v ; 2 ",
"0 V +.GXZXCXe.$.>.:.T G K i.k.) : 5 , 9 H -.1.sX,.<.=.,.1.W n + $ # $ o X . 0 0 t t . X X X & o ; q k !.d.r 0 D z L.W.z.c $ t - ",
"0 z sXGXAXCX4.#.>.*.p G M i.k.) k 7 7 9 T -.8.sX<.=.=.1.1.W K ; o - $ X . - r 5 5 y - . X X X o ; l w c j 7 $   c L.n.aX# 7 8 # ",
"r J SXGXAXCX4.#.*.%.9 K m ) ) _ l < F y G &.sX8.<.=.%.8.-.W ` m z , $ X . 6 5 5 5 0 t X X X X o ; z n y r = . v ( } B.cXz 0 $ % ",
"; B.UXGXGXVXq.*.1.E * K K M M _ k > $ S T ^ 8.1.=.%.%.8.-.W ~ K ` k O o X 0 5 6 5 5 y 8 . X X $ 5 z e V % # c z.z $X$XgXr 5 o 2 ",
"$ bXGXGXGXVXjX=.sX9 , K K m < c : $ o p W ~ %.-.-.%.&.8.;.W ^ T E L.j O = 0 7 6 5 5 7 y $ X X @ q q ; - # 6 J ; S gXgX .$ $ $ = ",
"8 UXAXGXDXVXhX=.o.+ < K K l < J k o J 9 ~ ~ ..=.1.&.%.2.*.^ ^ R o.3X3Xj 2 6 6 6 5 5 5 t 0 O X @ 2 q e o 0 V 6 # F X.bXV $ + @ # ",
"E UXFXGXAXVX8.=.K O l _ K l z c v _ ( p W ..;.-.1.%.%.2.:.#.#.%.z.5X3XK.4 5 0 6 6 8 5 6 t $ O @ ; e e 8 t e 6 # & F X._ o O X X ",
"fXFXAXGXAXkX-...z O _ z.( k k k d.L.( H ~ ^ ;.2.2.%.%.1.:.3.>.,.' 5X1X3XK.k r r 6 6 6 6 0 0 . @ ; e 0 0 r r 2 . & > ) L.z.g O X ",
"SXSXAXFXVXq.=.o.o > z.z._ c V M.J.M.{ G ..^ ^ :.:.&.*.1.:.3.2.jX} 5X1X3X3XC 3 r 6 0 0 6 0 0 - $ $ e r r t 6 @ k % > g g v x O . ",
"SXSXAXAXkX2...F   k n.n.M.M.K.m.f.M.( H ^ ^ ~ %.&.*.:.0.>.>.0.bX} 5X1X3X2XK.4 z 6 0 6 6 0 q q @ 2 r r 6 2 O ; F.b n.k.i.x x k > ",
"SXAXAXVXq.-.X.> c L.K.K.K.J.J.M.m.M.( T ^ %.~ ~ #.*.8.q.*.>.0.MXA 5X4X1X&X&Xb e u 6 8 6 5 - q q | t 6 -   o : V.y.W.E.W.W.E.F.n.",
"SXAXAXVX0.=.e j -X&XK.K.K.J.J.m.m.f.[ E ^ *.~ W W *.q.8.&.8.hXvXf.5X4X1X*X&XJ.4 y 8 6 2 5 e V J | F % @ y } : b x F.F.F.D.F.F.E.",
"SXAXVXkX:. .3 -X%X&X&X=X=XJ.m.m.%Xf.} ~ W *.^ W R #.q.:.3.hXdX-X%X5X4X1X*X&X*Xj 0 7 = P P X.J J I  .# @ B.MXk g x F.F.D.D.D.D.F.",
"SXAXCXhX*.F ( ;X%X&X&X2X&XJ.m.m.%Xm.M...^ *.&.^ R #.q.3.2.jXfX-X;X4X5X4X1X2X&XM.3 y = U y  .D P  .U O o L gXz > h F.F.D.D.D.D.D.",
"mXAXCX0.^ ( -X%X=X2X=X2X=X%XJ.f.%Xm.M.).&.#.:.*.#.3.0.3.q.lXvX-X;X*X5X4X4X1X&X-XV z 6 8 8 D U U z : o 2 5 ( U q > V.D.D.D.D.D.D.",
"nXSXNX3.E M.&X*X=X*X=X=X=X=X%XJ.J.f.M.aX,.$.>.:.>.>.4.>.hXbX-X4X*X%X5X4X4X1X*X*XM.4 7 7 7 y P 7 > : ; 5 ; F O.J O b F.F.D.D.D.D.",
"nXSXjX^ E M.%X*X%X;X%XJ.J.m.%X%X%Xm.M.aX<.:.>.0.0.0.0.4.xXMX-X5X5Xf.iX5X5X4X*X=X*X4 6 2 6 7 8 8 q k ; 5 ; 5 B.X.: g D.F.D.D.D.D."
};
